<svg viewBox="0 0 330 200" xmlns="http://www.w3.org/2000/svg"><g><g><g><g><g><line x1="41.171875" y1="177" x2="36.171875" y2="177" style="visibility: inherit;" fill="rgb(0, 0, 0)" stroke="rgb(204, 204, 204)" stroke-width="1px"></line><line x1="41.171875" y1="162.25" x2="36.171875" y2="162.25" style="visibility: inherit;" fill="rgb(0, 0, 0)" stroke="rgb(204, 204, 204)" stroke-width="1px"></line><line x1="41.171875" y1="147.5" x2="36.171875" y2="147.5" style="visibility: inherit;" fill="rgb(0, 0, 0)" stroke="rgb(204, 204, 204)" stroke-width="1px"></line><line x1="41.171875" y1="132.75" x2="36.171875" y2="132.75" style="visibility: inherit;" fill="rgb(0, 0, 0)" stroke="rgb(204, 204, 204)" stroke-width="1px"></line><line x1="41.171875" y1="118" x2="36.171875" y2="118" style="visibility: inherit;" fill="rgb(0, 0, 0)" stroke="rgb(204, 204, 204)" stroke-width="1px"></line><line x1="41.171875" y1="103.24999999999999" x2="36.171875" y2="103.24999999999999" style="visibility: inherit;" fill="rgb(0, 0, 0)" stroke="rgb(204, 204, 204)" stroke-width="1px"></line><line x1="41.171875" y1="88.49999999999999" x2="36.171875" y2="88.49999999999999" style="visibility: inherit;" fill="rgb(0, 0, 0)" stroke="rgb(204, 204, 204)" stroke-width="1px"></line><line x1="41.171875" y1="73.75" x2="36.171875" y2="73.75" style="visibility: inherit;" fill="rgb(0, 0, 0)" stroke="rgb(204, 204, 204)" stroke-width="1px"></line><line x1="41.171875" y1="58.999999999999986" x2="36.171875" y2="58.999999999999986" style="visibility: inherit;" fill="rgb(0, 0, 0)" stroke="rgb(204, 204, 204)" stroke-width="1px"></line><line x1="41.171875" y1="44.25" x2="36.171875" y2="44.25" style="visibility: inherit;" fill="rgb(0, 0, 0)" stroke="rgb(204, 204, 204)" stroke-width="1px"></line><line x1="41.171875" y1="29.499999999999993" x2="36.171875" y2="29.499999999999993" style="visibility: inherit;" fill="rgb(0, 0, 0)" stroke="rgb(204, 204, 204)" stroke-width="1px"></line><line x1="41.171875" y1="14.749999999999988" x2="36.171875" y2="14.749999999999988" style="visibility: inherit;" fill="rgb(0, 0, 0)" stroke="rgb(204, 204, 204)" stroke-width="1px"></line><line x1="41.171875" y1="0" x2="36.171875" y2="0" style="visibility: inherit;" fill="rgb(0, 0, 0)" stroke="rgb(204, 204, 204)" stroke-width="1px"></line></g><g transform="translate(31.171875, 0)"><text x="0" y="177" dx="0em" dy="0.3em" style="text-anchor: end; visibility: hidden; font-family: Roboto, sans-serif; font-size: 12px; font-weight: 200;" fill="rgb(33, 33, 33)" stroke="none" stroke-width="1px">1</text><text x="0" y="162.25" dx="0em" dy="0.3em" style="text-anchor: end; visibility: inherit; font-family: Roboto, sans-serif; font-size: 12px; font-weight: 200;" fill="rgb(33, 33, 33)" stroke="none" stroke-width="1px">1.2</text><text x="0" y="147.5" dx="0em" dy="0.3em" style="text-anchor: end; visibility: hidden; font-family: Roboto, sans-serif; font-size: 12px; font-weight: 200;" fill="rgb(33, 33, 33)" stroke="none" stroke-width="1px">1.4</text><text x="0" y="132.75" dx="0em" dy="0.3em" style="text-anchor: end; visibility: inherit; font-family: Roboto, sans-serif; font-size: 12px; font-weight: 200;" fill="rgb(33, 33, 33)" stroke="none" stroke-width="1px">1.6</text><text x="0" y="118" dx="0em" dy="0.3em" style="text-anchor: end; visibility: hidden; font-family: Roboto, sans-serif; font-size: 12px; font-weight: 200;" fill="rgb(33, 33, 33)" stroke="none" stroke-width="1px">1.8</text><text x="0" y="103.24999999999999" dx="0em" dy="0.3em" style="text-anchor: end; visibility: inherit; font-family: Roboto, sans-serif; font-size: 12px; font-weight: 200;" fill="rgb(33, 33, 33)" stroke="none" stroke-width="1px">2</text><text x="0" y="88.49999999999999" dx="0em" dy="0.3em" style="text-anchor: end; visibility: hidden; font-family: Roboto, sans-serif; font-size: 12px; font-weight: 200;" fill="rgb(33, 33, 33)" stroke="none" stroke-width="1px">2.2</text><text x="0" y="73.75" dx="0em" dy="0.3em" style="text-anchor: end; visibility: inherit; font-family: Roboto, sans-serif; font-size: 12px; font-weight: 200;" fill="rgb(33, 33, 33)" stroke="none" stroke-width="1px">2.4</text><text x="0" y="58.999999999999986" dx="0em" dy="0.3em" style="text-anchor: end; visibility: hidden; font-family: Roboto, sans-serif; font-size: 12px; font-weight: 200;" fill="rgb(33, 33, 33)" stroke="none" stroke-width="1px">2.6</text><text x="0" y="44.25" dx="0em" dy="0.3em" style="text-anchor: end; visibility: inherit; font-family: Roboto, sans-serif; font-size: 12px; font-weight: 200;" fill="rgb(33, 33, 33)" stroke="none" stroke-width="1px">2.8</text><text x="0" y="29.499999999999993" dx="0em" dy="0.3em" style="text-anchor: end; visibility: hidden; font-family: Roboto, sans-serif; font-size: 12px; font-weight: 200;" fill="rgb(33, 33, 33)" stroke="none" stroke-width="1px">3</text><text x="0" y="14.749999999999988" dx="0em" dy="0.3em" style="text-anchor: end; visibility: inherit; font-family: Roboto, sans-serif; font-size: 12px; font-weight: 200;" fill="rgb(33, 33, 33)" stroke="none" stroke-width="1px">3.2</text><text x="0" y="0" dx="0em" dy="0.3em" style="text-anchor: end; visibility: hidden; font-family: Roboto, sans-serif; font-size: 12px; font-weight: 200;" fill="rgb(33, 33, 33)" stroke="none" stroke-width="1px">3.4</text></g><line x1="41.171875" y1="0" x2="41.171875" y2="177" fill="rgb(0, 0, 0)" stroke="rgb(204, 204, 204)" stroke-width="1px"></line></g></g><g transform="translate(41, 0)" clip-path="url(#clip_0)"><clipPath id="clip_0"><rect width="288" height="177"></rect></clipPath><g><g><g><line x1="0" y1="0" x2="0" y2="177" fill="rgb(0, 0, 0)" stroke="rgb(66, 66, 66)" stroke-width="1px" opacity="0.25"></line><line x1="36.103515625" y1="0" x2="36.103515625" y2="177" fill="rgb(0, 0, 0)" stroke="rgb(66, 66, 66)" stroke-width="1px" opacity="0.25"></line><line x1="72.20703125" y1="0" x2="72.20703125" y2="177" fill="rgb(0, 0, 0)" stroke="rgb(66, 66, 66)" stroke-width="1px" opacity="0.25"></line><line x1="108.310546875" y1="0" x2="108.310546875" y2="177" fill="rgb(0, 0, 0)" stroke="rgb(66, 66, 66)" stroke-width="1px" opacity="0.25"></line><line x1="144.4140625" y1="0" x2="144.4140625" y2="177" fill="rgb(0, 0, 0)" stroke="rgb(66, 66, 66)" stroke-width="1px" opacity="0.25"></line><line x1="180.517578125" y1="0" x2="180.517578125" y2="177" fill="rgb(0, 0, 0)" stroke="rgb(66, 66, 66)" stroke-width="1px" opacity="0.25"></line><line x1="216.62109375" y1="0" x2="216.62109375" y2="177" fill="rgb(0, 0, 0)" stroke="rgb(66, 66, 66)" stroke-width="1px" opacity="0.25"></line><line x1="252.724609375" y1="0" x2="252.724609375" y2="177" fill="rgb(0, 0, 0)" stroke="rgb(66, 66, 66)" stroke-width="1px" opacity="0.25"></line><line x1="288.828125" y1="0" x2="288.828125" y2="177" fill="rgb(0, 0, 0)" stroke="rgb(66, 66, 66)" stroke-width="1px" opacity="0.25"></line></g><g><line x1="0" y1="177" x2="288.828125" y2="177" fill="rgb(0, 0, 0)" stroke="rgb(66, 66, 66)" stroke-width="1px" opacity="0.25"></line><line x1="0" y1="162.25" x2="288.828125" y2="162.25" fill="rgb(0, 0, 0)" stroke="rgb(66, 66, 66)" stroke-width="1px" opacity="0.25"></line><line x1="0" y1="147.5" x2="288.828125" y2="147.5" fill="rgb(0, 0, 0)" stroke="rgb(66, 66, 66)" stroke-width="1px" opacity="0.25"></line><line x1="0" y1="132.75" x2="288.828125" y2="132.75" fill="rgb(0, 0, 0)" stroke="rgb(66, 66, 66)" stroke-width="1px" opacity="0.25"></line><line x1="0" y1="118" x2="288.828125" y2="118" fill="rgb(0, 0, 0)" stroke="rgb(66, 66, 66)" stroke-width="1px" opacity="0.25"></line><line x1="0" y1="103.24999999999999" x2="288.828125" y2="103.24999999999999" fill="rgb(0, 0, 0)" stroke="rgb(66, 66, 66)" stroke-width="1px" opacity="0.25"></line><line x1="0" y1="88.49999999999999" x2="288.828125" y2="88.49999999999999" fill="rgb(0, 0, 0)" stroke="rgb(66, 66, 66)" stroke-width="1px" opacity="0.25"></line><line x1="0" y1="73.75" x2="288.828125" y2="73.75" fill="rgb(0, 0, 0)" stroke="rgb(66, 66, 66)" stroke-width="1px" opacity="0.25"></line><line x1="0" y1="58.999999999999986" x2="288.828125" y2="58.999999999999986" fill="rgb(0, 0, 0)" stroke="rgb(66, 66, 66)" stroke-width="1px" opacity="0.25"></line><line x1="0" y1="44.25" x2="288.828125" y2="44.25" fill="rgb(0, 0, 0)" stroke="rgb(66, 66, 66)" stroke-width="1px" opacity="0.25"></line><line x1="0" y1="29.499999999999993" x2="288.828125" y2="29.499999999999993" fill="rgb(0, 0, 0)" stroke="rgb(66, 66, 66)" stroke-width="1px" opacity="0.25"></line><line x1="0" y1="14.749999999999988" x2="288.828125" y2="14.749999999999988" fill="rgb(0, 0, 0)" stroke="rgb(66, 66, 66)" stroke-width="1px" opacity="0.25"></line><line x1="0" y1="0" x2="288.828125" y2="0" fill="rgb(0, 0, 0)" stroke="rgb(66, 66, 66)" stroke-width="1px" opacity="0.25"></line></g></g></g><g><g><line x1="0" y1="250.75" x2="288.828125" y2="250.75" fill="rgb(0, 0, 0)" stroke="rgb(153, 153, 153)" stroke-width="1.5px"></line></g></g><g><g><line x1="36.103515625" y1="0" x2="36.103515625" y2="177" fill="rgb(0, 0, 0)" stroke="rgb(153, 153, 153)" stroke-width="1.5px"></line></g></g><g><g><g><g><g><path stroke="rgb(255, 112, 67)" stroke-width="2px" d="M43.32421875,-5.784016884341138L45.12939453125,2.816218724632349L46.9345703125,14.2174674547492L48.73974609375,18.22065118832304L50.544921875,21.846457653719803L52.35009765625,26.294279890248333L54.1552734375,31.862170154738457L55.96044921875,35.29132935012034L57.765625,35.53882546704845L59.57080078125,38.315836179898255L61.3759765625,40.3361270152735L63.18115234375,43.8224486716209L64.986328125,44.14362365528773L66.79150390625,45.034719978902665L68.5966796875,45.92961099330409L70.40185546875,50.2522221180771L72.20703125,48.82659668233523L74.01220703125,53.23934475743013L75.8173828125,57.127304193408435L77.62255859375,56.976073858021316L79.427734375,58.54806652962346L81.23291015625,58.01580802782077L83.0380859375,59.908000642646115L84.84326171875,63.76853506089264L86.6484375,66.3735732397795L88.45361328125,68.33194714933508L90.2587890625,71.34697972086961L92.06396484375,73.8937761804687L93.869140625,75.85022001198664L95.67431640625,76.46704506693325L97.4794921875,78.34916928557344L99.28466796875,80.43820745207557L101.08984375,80.01488717805238L102.89501953125,80.94394636744063L104.7001953125,82.56266487359318L106.50537109375,82.95597279553124L108.310546875,85.8987063937216L110.11572265625,88.39758012253071L111.9208984375,90.6717401842367L113.72607421875,91.82585471293008L115.53125,93.74268163117235L117.33642578125,93.55895255130852L119.1416015625,95.26363540967125L120.94677734375,96.56358013918823L122.751953125,98.82521318421328L124.55712890625,100.58622369186848L126.3623046875,96.03862307675523L128.16748046875,98.18360322838359L129.97265625,100.68051709011831L131.77783203125,101.87225408122447L133.5830078125,104.45139726856814L135.38818359375,106.04348164117079L137.193359375,108.32535534689325L138.99853515625,109.66751371377426L140.8037109375,106.35208965869944L142.60888671875,109.27813273389474L144.4140625,111.57244974207488L146.21923828125,113.77350659270056L148.0244140625,112.6931526011167L149.82958984375,114.94788077747454L151.634765625,114.72269460723179L153.43994140625,117.40882762173044L155.2451171875,114.75651905476586L157.05029296875,117.78391250097476L158.85546875,118.17587051465344L160.66064453125,120.02415777250664L162.4658203125,122.36268597247921L164.27099609375,122.51127162815762L166.076171875,124.691683573971L167.88134765625,126.41196888890852L169.6865234375,127.8656275284707L171.49169921875,128.0459522612345L173.296875,129.4983078364999L175.10205078125,130.23857385662026L176.9072265625,130.60976951567426L178.71240234375,131.46139834671075L180.517578125,132.66055358856235L182.32275390625,134.04000336771793L184.1279296875,133.4578878453111L185.93310546875,133.94376179997533L187.73828125,134.40816938534027L189.54345703125,135.59178076776652L191.3486328125,137.43029356356138L193.15380859375,138.70326714727685L194.958984375,139.27324739106538L196.76416015625,140.60433176164653L198.5693359375,141.61420086029068L200.37451171875,140.7858925283128L202.1796875,141.22425139070594L203.98486328125,142.73399798942233L205.7900390625,143.93158219380751L207.59521484375,145.09568828418003L209.400390625,145.70973769470538L211.20556640625,144.90419252898982L213.0107421875,146.57876695505794L214.81591796875,147.7167408067704L216.62109375,147.61667479269033L218.42626953125,148.88499198670584L220.2314453125,147.9961487431252L222.03662109375,148.37123486870072L223.841796875,149.99959070368735L225.64697265625,147.57794271042422L227.4521484375,149.86192648488566L229.25732421875,151.89189358281067L231.0625,153.17761553363187L232.86767578125,153.92857462785352L234.6728515625,154.87690716160364L236.47802734375,155.59860418542044L238.283203125,154.8637630838383L240.08837890625,156.27162671674662L241.8935546875,156.6767008578144L243.69873046875,157.8477393552877L245.50390625,158.8577303150426L247.30908203125,159.02611700648848L249.1142578125,159.9131256696867L250.91943359375,160.59794748766942L252.724609375,161.46895869340733L254.52978515625,160.99517561057948L256.3349609375,159.2085615102037L258.14013671875,161.11272967479132L259.9453125,162.37929180038873L261.75048828125,163.48123969300332L263.5556640625,163.99254184760895L265.36083984375,164.28318512319476" style="fill: none;" fill="none"></path></g></g></g></g><g opacity="0.2"><g><g><g><path stroke="rgb(255, 112, 67)" stroke-width="2px" d="M36.103515625,-384.5829527378082L37.90869140625,5.419240415096283L39.7138671875,13.855970025062549L41.51904296875,12.163781642913811L43.32421875,23.04934722185134L45.12939453125,14.713440656661987L46.9345703125,30.52143555879593L48.73974609375,24.05733150243759L50.544921875,27.19381791353225L52.35009765625,32.898777544498444L54.1552734375,40.163505196571336L55.96044921875,40.41640681028366L57.765625,35.90926152467726L59.57080078125,42.47591179609297L61.3759765625,43.364188492298126L63.18115234375,49.04947233200072L64.986328125,44.62525022029876L66.79150390625,46.37113821506499L68.5966796875,47.2718111872673L70.40185546875,56.73574370145796L72.20703125,46.688236713409424L74.01220703125,59.85832166671752L75.8173828125,62.95916658639908L77.62255859375,56.749230146408074L79.427734375,60.90604436397552L81.23291015625,57.21742254495621L83.0380859375,62.74628472328185L84.84326171875,69.55933076143265L86.6484375,70.28112810850142L88.45361328125,71.26950693130492L90.2587890625,75.86952757835387L92.06396484375,77.7139703631401L93.869140625,78.78488552570343L95.67431640625,77.3922826051712L97.4794921875,81.17235553264618L99.28466796875,83.57176464796066L101.08984375,79.3799067735672L102.89501953125,82.33753514289855L104.7001953125,84.990742623806L106.50537109375,83.54593467712401L108.310546875,90.31280678510666L110.11572265625,92.14589071273802L111.9208984375,94.0829802751541L113.72607421875,93.55702650547028L115.53125,96.61792200803757L117.33642578125,93.28335893154144L119.1416015625,97.82065969705582L120.94677734375,98.51349723339081L122.751953125,102.21766275167465L124.55712890625,103.22773945331572L126.3623046875,89.21722215414047L128.16748046875,101.40107345581055L129.97265625,104.4258878827095L131.77783203125,103.65985956788063L133.5830078125,108.32011204957962L135.38818359375,108.43160820007324L137.193359375,111.74816590547562L138.99853515625,111.6807512640953L140.8037109375,101.37895357608794L142.60888671875,113.6671973466873L144.4140625,115.01392525434494L146.21923828125,117.07509186863898L148.0244140625,111.07262161374092L149.82958984375,118.32997304201126L151.634765625,114.38491535186766L153.43994140625,121.43802714347838L155.2451171875,110.778056204319L157.05029296875,122.32500267028809L158.85546875,118.7638075351715L160.66064453125,122.7965886592865L162.4658203125,125.87047827243805L164.27099609375,122.73415011167525L166.076171875,127.96230149269104L167.88134765625,128.99239686131477L169.6865234375,130.04611548781395L171.49169921875,128.31643936038017L173.296875,131.67684119939804L175.10205078125,131.34897288680077L176.9072265625,131.1665630042553L178.71240234375,132.73884159326553L180.517578125,134.45928645133972L182.32275390625,136.10917803645134L184.1279296875,132.58471456170082L185.93310546875,134.67257273197174L187.73828125,135.10478076338768L189.54345703125,137.36719784140587L191.3486328125,140.18806275725365L193.15380859375,140.61272752285004L194.958984375,140.1282177567482L196.76416015625,142.60095831751823L198.5693359375,143.1290045082569L200.37451171875,139.54343003034592L202.1796875,141.88178968429565L203.98486328125,144.99861788749695L205.7900390625,145.72795850038528L207.59521484375,146.84184741973877L209.400390625,146.63081181049347L211.20556640625,143.6958747804165L213.0107421875,149.09062859416008L214.81591796875,149.42370158433914L216.62109375,147.4665757715702L218.42626953125,150.78746777772903L220.2314453125,146.6628838777542L222.03662109375,148.93386405706406L223.841796875,152.44212445616722L225.64697265625,143.94547072052956L227.4521484375,153.28790214657784L229.25732421875,154.93684422969818L231.0625,155.10619845986366L232.86767578125,155.05501326918602L234.6728515625,156.29940596222878L236.47802734375,156.68114972114563L238.283203125,153.76150143146515L240.08837890625,158.38342216610909L241.8935546875,157.28431206941605L243.69873046875,159.60429710149765L245.50390625,160.3727167546749L247.30908203125,159.2786970436573L249.1142578125,161.24363866448402L250.91943359375,161.62518021464348L252.724609375,162.77547550201416L254.52978515625,160.28450098633766L256.3349609375,156.52864035964012L258.14013671875,163.96898192167282L259.9453125,164.2791349887848L261.75048828125,165.1341615319252L263.5556640625,164.75949507951736L265.36083984375,164.7191500365734" style="fill: none;" fill="none"></path></g></g></g></g></g></g><g transform="translate(41, 177)" clip-path="url(#clip_1)"><clipPath id="clip_1"><rect width="288" height="23"></rect></clipPath><g><g><line x1="0" y1="0" x2="0" y2="5" style="visibility: inherit;" fill="rgb(0, 0, 0)" stroke="rgb(204, 204, 204)" stroke-width="1px"></line><line x1="36.103515625" y1="0" x2="36.103515625" y2="5" style="visibility: inherit;" fill="rgb(0, 0, 0)" stroke="rgb(204, 204, 204)" stroke-width="1px"></line><line x1="72.20703125" y1="0" x2="72.20703125" y2="5" style="visibility: inherit;" fill="rgb(0, 0, 0)" stroke="rgb(204, 204, 204)" stroke-width="1px"></line><line x1="108.310546875" y1="0" x2="108.310546875" y2="5" style="visibility: inherit;" fill="rgb(0, 0, 0)" stroke="rgb(204, 204, 204)" stroke-width="1px"></line><line x1="144.4140625" y1="0" x2="144.4140625" y2="5" style="visibility: inherit;" fill="rgb(0, 0, 0)" stroke="rgb(204, 204, 204)" stroke-width="1px"></line><line x1="180.517578125" y1="0" x2="180.517578125" y2="5" style="visibility: inherit;" fill="rgb(0, 0, 0)" stroke="rgb(204, 204, 204)" stroke-width="1px"></line><line x1="216.62109375" y1="0" x2="216.62109375" y2="5" style="visibility: inherit;" fill="rgb(0, 0, 0)" stroke="rgb(204, 204, 204)" stroke-width="1px"></line><line x1="252.724609375" y1="0" x2="252.724609375" y2="5" style="visibility: inherit;" fill="rgb(0, 0, 0)" stroke="rgb(204, 204, 204)" stroke-width="1px"></line><line x1="288.828125" y1="0" x2="288.828125" y2="5" style="visibility: inherit;" fill="rgb(0, 0, 0)" stroke="rgb(204, 204, 204)" stroke-width="1px"></line></g><g transform="translate(0, 8)"><text x="0" y="0" dx="0em" dy="0.95em" style="text-anchor: middle; visibility: hidden; font-family: Roboto, sans-serif; font-size: 12px; font-weight: 200;" fill="rgb(33, 33, 33)" stroke="none" stroke-width="1px">-2k</text><text x="36.103515625" y="0" dx="0em" dy="0.95em" style="text-anchor: middle; visibility: inherit; font-family: Roboto, sans-serif; font-size: 12px; font-weight: 200;" fill="rgb(33, 33, 33)" stroke="none" stroke-width="1px">0</text><text x="72.20703125" y="0" dx="0em" dy="0.95em" style="text-anchor: middle; visibility: inherit; font-family: Roboto, sans-serif; font-size: 12px; font-weight: 200;" fill="rgb(33, 33, 33)" stroke="none" stroke-width="1px">2k</text><text x="108.310546875" y="0" dx="0em" dy="0.95em" style="text-anchor: middle; visibility: inherit; font-family: Roboto, sans-serif; font-size: 12px; font-weight: 200;" fill="rgb(33, 33, 33)" stroke="none" stroke-width="1px">4k</text><text x="144.4140625" y="0" dx="0em" dy="0.95em" style="text-anchor: middle; visibility: inherit; font-family: Roboto, sans-serif; font-size: 12px; font-weight: 200;" fill="rgb(33, 33, 33)" stroke="none" stroke-width="1px">6k</text><text x="180.517578125" y="0" dx="0em" dy="0.95em" style="text-anchor: middle; visibility: inherit; font-family: Roboto, sans-serif; font-size: 12px; font-weight: 200;" fill="rgb(33, 33, 33)" stroke="none" stroke-width="1px">8k</text><text x="216.62109375" y="0" dx="0em" dy="0.95em" style="text-anchor: middle; visibility: inherit; font-family: Roboto, sans-serif; font-size: 12px; font-weight: 200;" fill="rgb(33, 33, 33)" stroke="none" stroke-width="1px">10k</text><text x="252.724609375" y="0" dx="0em" dy="0.95em" style="text-anchor: middle; visibility: inherit; font-family: Roboto, sans-serif; font-size: 12px; font-weight: 200;" fill="rgb(33, 33, 33)" stroke="none" stroke-width="1px">12k</text><text x="288.828125" y="0" dx="0em" dy="0.95em" style="text-anchor: middle; visibility: hidden; font-family: Roboto, sans-serif; font-size: 12px; font-weight: 200;" fill="rgb(33, 33, 33)" stroke="none" stroke-width="1px">14k</text></g><line x1="0" y1="0" x2="288.828125" y2="0" fill="rgb(0, 0, 0)" stroke="rgb(204, 204, 204)" stroke-width="1px"></line></g></g></g></g></svg>