<svg viewBox="0 0 330 200" xmlns="http://www.w3.org/2000/svg"><g><g><g><g><g><line x1="51.5625" y1="177" x2="46.5625" y2="177" style="visibility: inherit;" fill="rgb(0, 0, 0)" stroke="rgb(204, 204, 204)" stroke-width="1px"></line><line x1="51.5625" y1="160.9090909090909" x2="46.5625" y2="160.9090909090909" style="visibility: inherit;" fill="rgb(0, 0, 0)" stroke="rgb(204, 204, 204)" stroke-width="1px"></line><line x1="51.5625" y1="144.8181818181818" x2="46.5625" y2="144.8181818181818" style="visibility: inherit;" fill="rgb(0, 0, 0)" stroke="rgb(204, 204, 204)" stroke-width="1px"></line><line x1="51.5625" y1="128.72727272727272" x2="46.5625" y2="128.72727272727272" style="visibility: inherit;" fill="rgb(0, 0, 0)" stroke="rgb(204, 204, 204)" stroke-width="1px"></line><line x1="51.5625" y1="112.63636363636364" x2="46.5625" y2="112.63636363636364" style="visibility: inherit;" fill="rgb(0, 0, 0)" stroke="rgb(204, 204, 204)" stroke-width="1px"></line><line x1="51.5625" y1="96.54545454545453" x2="46.5625" y2="96.54545454545453" style="visibility: inherit;" fill="rgb(0, 0, 0)" stroke="rgb(204, 204, 204)" stroke-width="1px"></line><line x1="51.5625" y1="80.45454545454547" x2="46.5625" y2="80.45454545454547" style="visibility: inherit;" fill="rgb(0, 0, 0)" stroke="rgb(204, 204, 204)" stroke-width="1px"></line><line x1="51.5625" y1="64.36363636363636" x2="46.5625" y2="64.36363636363636" style="visibility: inherit;" fill="rgb(0, 0, 0)" stroke="rgb(204, 204, 204)" stroke-width="1px"></line><line x1="51.5625" y1="48.272727272727266" x2="46.5625" y2="48.272727272727266" style="visibility: inherit;" fill="rgb(0, 0, 0)" stroke="rgb(204, 204, 204)" stroke-width="1px"></line><line x1="51.5625" y1="32.18181818181817" x2="46.5625" y2="32.18181818181817" style="visibility: inherit;" fill="rgb(0, 0, 0)" stroke="rgb(204, 204, 204)" stroke-width="1px"></line><line x1="51.5625" y1="16.090909090909097" x2="46.5625" y2="16.090909090909097" style="visibility: inherit;" fill="rgb(0, 0, 0)" stroke="rgb(204, 204, 204)" stroke-width="1px"></line><line x1="51.5625" y1="0" x2="46.5625" y2="0" style="visibility: inherit;" fill="rgb(0, 0, 0)" stroke="rgb(204, 204, 204)" stroke-width="1px"></line></g><g transform="translate(41.5625, 0)"><text x="0" y="177" dx="0em" dy="0.3em" style="text-anchor: end; visibility: hidden; font-family: Roboto, sans-serif; font-size: 12px; font-weight: 200;" fill="rgb(33, 33, 33)" stroke="none" stroke-width="1px">-0.5</text><text x="0" y="160.9090909090909" dx="0em" dy="0.3em" style="text-anchor: end; visibility: inherit; font-family: Roboto, sans-serif; font-size: 12px; font-weight: 200;" fill="rgb(33, 33, 33)" stroke="none" stroke-width="1px">0</text><text x="0" y="144.8181818181818" dx="0em" dy="0.3em" style="text-anchor: end; visibility: hidden; font-family: Roboto, sans-serif; font-size: 12px; font-weight: 200;" fill="rgb(33, 33, 33)" stroke="none" stroke-width="1px">0.5</text><text x="0" y="128.72727272727272" dx="0em" dy="0.3em" style="text-anchor: end; visibility: inherit; font-family: Roboto, sans-serif; font-size: 12px; font-weight: 200;" fill="rgb(33, 33, 33)" stroke="none" stroke-width="1px">1</text><text x="0" y="112.63636363636364" dx="0em" dy="0.3em" style="text-anchor: end; visibility: hidden; font-family: Roboto, sans-serif; font-size: 12px; font-weight: 200;" fill="rgb(33, 33, 33)" stroke="none" stroke-width="1px">1.5</text><text x="0" y="96.54545454545453" dx="0em" dy="0.3em" style="text-anchor: end; visibility: inherit; font-family: Roboto, sans-serif; font-size: 12px; font-weight: 200;" fill="rgb(33, 33, 33)" stroke="none" stroke-width="1px">2</text><text x="0" y="80.45454545454547" dx="0em" dy="0.3em" style="text-anchor: end; visibility: hidden; font-family: Roboto, sans-serif; font-size: 12px; font-weight: 200;" fill="rgb(33, 33, 33)" stroke="none" stroke-width="1px">2.5</text><text x="0" y="64.36363636363636" dx="0em" dy="0.3em" style="text-anchor: end; visibility: inherit; font-family: Roboto, sans-serif; font-size: 12px; font-weight: 200;" fill="rgb(33, 33, 33)" stroke="none" stroke-width="1px">3</text><text x="0" y="48.272727272727266" dx="0em" dy="0.3em" style="text-anchor: end; visibility: hidden; font-family: Roboto, sans-serif; font-size: 12px; font-weight: 200;" fill="rgb(33, 33, 33)" stroke="none" stroke-width="1px">3.5</text><text x="0" y="32.18181818181817" dx="0em" dy="0.3em" style="text-anchor: end; visibility: inherit; font-family: Roboto, sans-serif; font-size: 12px; font-weight: 200;" fill="rgb(33, 33, 33)" stroke="none" stroke-width="1px">4</text><text x="0" y="16.090909090909097" dx="0em" dy="0.3em" style="text-anchor: end; visibility: hidden; font-family: Roboto, sans-serif; font-size: 12px; font-weight: 200;" fill="rgb(33, 33, 33)" stroke="none" stroke-width="1px">4.5</text><text x="0" y="0" dx="0em" dy="0.3em" style="text-anchor: end; visibility: hidden; font-family: Roboto, sans-serif; font-size: 12px; font-weight: 200;" fill="rgb(33, 33, 33)" stroke="none" stroke-width="1px">5</text></g><line x1="51.5625" y1="0" x2="51.5625" y2="177" fill="rgb(0, 0, 0)" stroke="rgb(204, 204, 204)" stroke-width="1px"></line></g></g><g transform="translate(51, 0)" clip-path="url(#clip_0)"><clipPath id="clip_0"><rect width="278" height="177"></rect></clipPath><g><g><g><line x1="0" y1="0" x2="0" y2="177" fill="rgb(0, 0, 0)" stroke="rgb(66, 66, 66)" stroke-width="1px" opacity="0.25"></line><line x1="34.8046875" y1="0" x2="34.8046875" y2="177" fill="rgb(0, 0, 0)" stroke="rgb(66, 66, 66)" stroke-width="1px" opacity="0.25"></line><line x1="69.609375" y1="0" x2="69.609375" y2="177" fill="rgb(0, 0, 0)" stroke="rgb(66, 66, 66)" stroke-width="1px" opacity="0.25"></line><line x1="104.4140625" y1="0" x2="104.4140625" y2="177" fill="rgb(0, 0, 0)" stroke="rgb(66, 66, 66)" stroke-width="1px" opacity="0.25"></line><line x1="139.21875" y1="0" x2="139.21875" y2="177" fill="rgb(0, 0, 0)" stroke="rgb(66, 66, 66)" stroke-width="1px" opacity="0.25"></line><line x1="174.0234375" y1="0" x2="174.0234375" y2="177" fill="rgb(0, 0, 0)" stroke="rgb(66, 66, 66)" stroke-width="1px" opacity="0.25"></line><line x1="208.828125" y1="0" x2="208.828125" y2="177" fill="rgb(0, 0, 0)" stroke="rgb(66, 66, 66)" stroke-width="1px" opacity="0.25"></line><line x1="243.6328125" y1="0" x2="243.6328125" y2="177" fill="rgb(0, 0, 0)" stroke="rgb(66, 66, 66)" stroke-width="1px" opacity="0.25"></line><line x1="278.4375" y1="0" x2="278.4375" y2="177" fill="rgb(0, 0, 0)" stroke="rgb(66, 66, 66)" stroke-width="1px" opacity="0.25"></line></g><g><line x1="0" y1="177" x2="278.4375" y2="177" fill="rgb(0, 0, 0)" stroke="rgb(66, 66, 66)" stroke-width="1px" opacity="0.25"></line><line x1="0" y1="160.9090909090909" x2="278.4375" y2="160.9090909090909" fill="rgb(0, 0, 0)" stroke="rgb(66, 66, 66)" stroke-width="1px" opacity="0.25"></line><line x1="0" y1="144.8181818181818" x2="278.4375" y2="144.8181818181818" fill="rgb(0, 0, 0)" stroke="rgb(66, 66, 66)" stroke-width="1px" opacity="0.25"></line><line x1="0" y1="128.72727272727272" x2="278.4375" y2="128.72727272727272" fill="rgb(0, 0, 0)" stroke="rgb(66, 66, 66)" stroke-width="1px" opacity="0.25"></line><line x1="0" y1="112.63636363636364" x2="278.4375" y2="112.63636363636364" fill="rgb(0, 0, 0)" stroke="rgb(66, 66, 66)" stroke-width="1px" opacity="0.25"></line><line x1="0" y1="96.54545454545453" x2="278.4375" y2="96.54545454545453" fill="rgb(0, 0, 0)" stroke="rgb(66, 66, 66)" stroke-width="1px" opacity="0.25"></line><line x1="0" y1="80.45454545454547" x2="278.4375" y2="80.45454545454547" fill="rgb(0, 0, 0)" stroke="rgb(66, 66, 66)" stroke-width="1px" opacity="0.25"></line><line x1="0" y1="64.36363636363636" x2="278.4375" y2="64.36363636363636" fill="rgb(0, 0, 0)" stroke="rgb(66, 66, 66)" stroke-width="1px" opacity="0.25"></line><line x1="0" y1="48.272727272727266" x2="278.4375" y2="48.272727272727266" fill="rgb(0, 0, 0)" stroke="rgb(66, 66, 66)" stroke-width="1px" opacity="0.25"></line><line x1="0" y1="32.18181818181817" x2="278.4375" y2="32.18181818181817" fill="rgb(0, 0, 0)" stroke="rgb(66, 66, 66)" stroke-width="1px" opacity="0.25"></line><line x1="0" y1="16.090909090909097" x2="278.4375" y2="16.090909090909097" fill="rgb(0, 0, 0)" stroke="rgb(66, 66, 66)" stroke-width="1px" opacity="0.25"></line><line x1="0" y1="0" x2="278.4375" y2="0" fill="rgb(0, 0, 0)" stroke="rgb(66, 66, 66)" stroke-width="1px" opacity="0.25"></line></g></g></g><g><g><line x1="0" y1="160.9090909090909" x2="278.4375" y2="160.9090909090909" fill="rgb(0, 0, 0)" stroke="rgb(153, 153, 153)" stroke-width="1.5px"></line></g></g><g><g><line x1="34.8046875" y1="0" x2="34.8046875" y2="177" fill="rgb(0, 0, 0)" stroke="rgb(153, 153, 153)" stroke-width="1.5px"></line></g></g><g><g><g><g><g><path stroke="rgb(255, 112, 67)" stroke-width="2px" d="M43.505859375,-96.93865345181135L45.24609375,9.170830749487024L46.986328125,-10.92595954651497L48.7265625,17.870994860696378L50.466796875,34.96230517050783L52.20703125,85.52445746591906L53.947265625,75.42906263878042L55.6875,49.24596791714038L57.427734375,73.81683550528082L59.16796875,68.4239292759999L60.908203125,85.3091210637841L62.6484375,55.203103968011575L64.388671875,57.25843475647639L66.12890625,38.37663754590921L67.869140625,67.27703917201877L69.609375,64.50252627522244L71.349609375,82.95175859707274L73.08984375,114.13493778487057L74.830078125,112.73095601832134L76.5703125,91.77487766862208L78.310546875,79.20126878925757L80.05078125,51.54346023878113L81.791015625,75.17609065593045L83.53125,89.35565961811311L85.271484375,97.86339765170685L87.01171875,123.08167829972297L88.751953125,118.09900658327985L90.4921875,135.22304113131057L92.232421875,105.2701874569654L93.97265625,107.41211251100043L95.712890625,128.81090409095285L97.453125,101.42290592144046L99.193359375,64.8764706898876L100.93359375,63.06224604625426L102.673828125,41.86007487213783L104.4140625,89.47968132511235L106.154296875,118.05144517245336L107.89453125,135.19450347205822L109.634765625,125.36670208153235L111.375,139.58365761403357L113.115234375,107.88655820280692L114.85546875,129.09557128611416L116.595703125,121.70734277150261L118.3359375,137.3880420267492L120.076171875,146.79646157976194L121.81640625,71.98696785658524L123.556640625,67.32854435030123L125.296875,84.64712661021095L127.037109375,74.92463960248004L128.77734375,89.20478376149701L130.517578125,97.77287025690143L132.2578125,123.02735851778296L133.998046875,138.1800514743082L135.73828125,86.930758157308L137.478515625,116.52209125802263L139.21875,134.27689111845046L140.958984375,144.92977103470685L142.69921875,131.20786262082396L144.439453125,143.0883539361308L146.1796875,130.10301236167845L147.919921875,142.42544378064346L149.66015625,109.59162990474967L151.400390625,130.1186143064862L153.140625,102.20753222025533L154.880859375,105.57451933215322L156.62109375,127.7083479629283L158.361328125,120.87500877775697L160.1015625,136.88864163029055L161.841796875,146.4968213418107L163.58203125,152.26172916872278L165.322265625,135.60703750123366L167.0625,145.72785886437657L168.802734375,151.80035168226232L170.54296875,135.33021100935738L172.283203125,125.44812660561443L174.0234375,139.63251232700503L175.763671875,148.14314375983938L177.50390625,133.13588625590364L179.244140625,124.13153175354218L180.984375,118.7289190521253L182.724609375,115.48735143127519L184.46484375,133.65604722240147L186.205078125,144.55726469707724L187.9453125,151.0979951818827L189.685546875,155.02243347276598L191.42578125,157.37709644729594L193.166015625,118.5626215047412L194.90625,115.38757290284471L196.646484375,133.5961801053432L198.38671875,144.5213444268423L200.126953125,151.07644301974173L201.8671875,155.0095021754814L203.607421875,137.25570130528885L205.34765625,146.71705714680968L207.087890625,152.39387065172218L208.828125,135.68632239103331L210.568359375,145.77542979825634L212.30859375,131.71525787895382L214.048828125,123.27915472737229L215.7890625,138.33112920005973L217.529296875,87.02140479276312L219.26953125,96.46284287565786L221.009765625,122.24134208903108L222.75,137.70844161705503L224.490234375,146.98870133386936L226.23046875,152.556857163958L227.970703125,155.89775066201116L229.7109375,137.7886503972067L231.451171875,147.03682660196037L233.19140625,132.47209596117622L234.931640625,143.84689394034208L236.671875,150.67177272784164L238.412109375,154.76670000034133L240.15234375,157.22365636384117L241.892578125,158.69783018194104L243.6328125,159.582334472801L245.373046875,139.9994006836806L247.11328125,108.136004046572L248.853515625,129.24523879157957L250.59375,141.91077963858407L252.333984375,149.51010414678683L254.07421875,133.9560624880721L255.814453125,124.62363749284324" style="fill: none;" fill="none"></path></g></g></g></g><g opacity="0.2"><g><g><g><path stroke="rgb(255, 112, 67)" stroke-width="2px" d="M40.025390625,-40.227272727272734L41.765625,60.34090909090909L43.505859375,-40.227272727272734L45.24609375,160.9090909090909L46.986328125,-40.227272727272734L48.7265625,60.34090909090909L50.466796875,60.34090909090909L52.20703125,160.9090909090909L53.947265625,60.34090909090909L55.6875,10.056818181818173L57.427734375,110.625L59.16796875,60.34090909090909L60.908203125,110.625L62.6484375,10.056818181818173L64.388671875,60.34090909090909L66.12890625,10.056818181818173L67.869140625,110.625L69.609375,60.34090909090909L71.349609375,110.625L73.08984375,160.9090909090909L74.830078125,110.625L76.5703125,60.34090909090909L78.310546875,60.34090909090909L80.05078125,10.056818181818173L81.791015625,110.625L83.53125,110.625L85.271484375,110.625L87.01171875,160.9090909090909L88.751953125,110.625L90.4921875,160.9090909090909L92.232421875,60.34090909090909L93.97265625,110.625L95.712890625,160.9090909090909L97.453125,60.34090909090909L99.193359375,10.056818181818173L100.93359375,60.34090909090909L102.673828125,10.056818181818173L104.4140625,160.9090909090909L106.154296875,160.9090909090909L107.89453125,160.9090909090909L109.634765625,110.625L111.375,160.9090909090909L113.115234375,60.34090909090909L114.85546875,160.9090909090909L116.595703125,110.625L118.3359375,160.9090909090909L120.076171875,160.9090909090909L121.81640625,-40.227272727272734L123.556640625,60.34090909090909L125.296875,110.625L127.037109375,60.34090909090909L128.77734375,110.625L130.517578125,110.625L132.2578125,160.9090909090909L133.998046875,160.9090909090909L135.73828125,10.056818181818173L137.478515625,160.9090909090909L139.21875,160.9090909090909L140.958984375,160.9090909090909L142.69921875,110.625L144.439453125,160.9090909090909L146.1796875,110.625L147.919921875,160.9090909090909L149.66015625,60.34090909090909L151.400390625,160.9090909090909L153.140625,60.34090909090909L154.880859375,110.625L156.62109375,160.9090909090909L158.361328125,110.625L160.1015625,160.9090909090909L161.841796875,160.9090909090909L163.58203125,160.9090909090909L165.322265625,110.625L167.0625,160.9090909090909L168.802734375,160.9090909090909L170.54296875,110.625L172.283203125,110.625L174.0234375,160.9090909090909L175.763671875,160.9090909090909L177.50390625,110.625L179.244140625,110.625L180.984375,110.625L182.724609375,110.625L184.46484375,160.9090909090909L186.205078125,160.9090909090909L187.9453125,160.9090909090909L189.685546875,160.9090909090909L191.42578125,160.9090909090909L193.166015625,60.34090909090909L194.90625,110.625L196.646484375,160.9090909090909L198.38671875,160.9090909090909L200.126953125,160.9090909090909L201.8671875,160.9090909090909L203.607421875,110.625L205.34765625,160.9090909090909L207.087890625,160.9090909090909L208.828125,110.625L210.568359375,160.9090909090909L212.30859375,110.625L214.048828125,110.625L215.7890625,160.9090909090909L217.529296875,10.056818181818173L219.26953125,110.625L221.009765625,160.9090909090909L222.75,160.9090909090909L224.490234375,160.9090909090909L226.23046875,160.9090909090909L227.970703125,160.9090909090909L229.7109375,110.625L231.451171875,160.9090909090909L233.19140625,110.625L234.931640625,160.9090909090909L236.671875,160.9090909090909L238.412109375,160.9090909090909L240.15234375,160.9090909090909L241.892578125,160.9090909090909L243.6328125,160.9090909090909L245.373046875,110.625L247.11328125,60.34090909090909L248.853515625,160.9090909090909L250.59375,160.9090909090909L252.333984375,160.9090909090909L254.07421875,110.625L255.814453125,110.625" style="fill: none;" fill="none"></path></g></g></g></g></g><g><g opacity="0.967103"><span fill="rgb(0, 0, 0)" stroke="none" stroke-width="1px">Alt + Scroll to Zoom</span></g></g></g><g transform="translate(51, 177)" clip-path="url(#clip_1)"><clipPath id="clip_1"><rect width="278" height="23"></rect></clipPath><g><g><line x1="0" y1="0" x2="0" y2="5" style="visibility: inherit;" fill="rgb(0, 0, 0)" stroke="rgb(204, 204, 204)" stroke-width="1px"></line><line x1="34.8046875" y1="0" x2="34.8046875" y2="5" style="visibility: inherit;" fill="rgb(0, 0, 0)" stroke="rgb(204, 204, 204)" stroke-width="1px"></line><line x1="69.609375" y1="0" x2="69.609375" y2="5" style="visibility: inherit;" fill="rgb(0, 0, 0)" stroke="rgb(204, 204, 204)" stroke-width="1px"></line><line x1="104.4140625" y1="0" x2="104.4140625" y2="5" style="visibility: inherit;" fill="rgb(0, 0, 0)" stroke="rgb(204, 204, 204)" stroke-width="1px"></line><line x1="139.21875" y1="0" x2="139.21875" y2="5" style="visibility: inherit;" fill="rgb(0, 0, 0)" stroke="rgb(204, 204, 204)" stroke-width="1px"></line><line x1="174.0234375" y1="0" x2="174.0234375" y2="5" style="visibility: inherit;" fill="rgb(0, 0, 0)" stroke="rgb(204, 204, 204)" stroke-width="1px"></line><line x1="208.828125" y1="0" x2="208.828125" y2="5" style="visibility: inherit;" fill="rgb(0, 0, 0)" stroke="rgb(204, 204, 204)" stroke-width="1px"></line><line x1="243.6328125" y1="0" x2="243.6328125" y2="5" style="visibility: inherit;" fill="rgb(0, 0, 0)" stroke="rgb(204, 204, 204)" stroke-width="1px"></line><line x1="278.4375" y1="0" x2="278.4375" y2="5" style="visibility: inherit;" fill="rgb(0, 0, 0)" stroke="rgb(204, 204, 204)" stroke-width="1px"></line></g><g transform="translate(0, 8)"><text x="0" y="0" dx="0em" dy="0.95em" style="text-anchor: middle; visibility: hidden; font-family: Roboto, sans-serif; font-size: 12px; font-weight: 200;" fill="rgb(33, 33, 33)" stroke="none" stroke-width="1px">-2k</text><text x="34.8046875" y="0" dx="0em" dy="0.95em" style="text-anchor: middle; visibility: inherit; font-family: Roboto, sans-serif; font-size: 12px; font-weight: 200;" fill="rgb(33, 33, 33)" stroke="none" stroke-width="1px">0</text><text x="69.609375" y="0" dx="0em" dy="0.95em" style="text-anchor: middle; visibility: inherit; font-family: Roboto, sans-serif; font-size: 12px; font-weight: 200;" fill="rgb(33, 33, 33)" stroke="none" stroke-width="1px">2k</text><text x="104.4140625" y="0" dx="0em" dy="0.95em" style="text-anchor: middle; visibility: inherit; font-family: Roboto, sans-serif; font-size: 12px; font-weight: 200;" fill="rgb(33, 33, 33)" stroke="none" stroke-width="1px">4k</text><text x="139.21875" y="0" dx="0em" dy="0.95em" style="text-anchor: middle; visibility: inherit; font-family: Roboto, sans-serif; font-size: 12px; font-weight: 200;" fill="rgb(33, 33, 33)" stroke="none" stroke-width="1px">6k</text><text x="174.0234375" y="0" dx="0em" dy="0.95em" style="text-anchor: middle; visibility: inherit; font-family: Roboto, sans-serif; font-size: 12px; font-weight: 200;" fill="rgb(33, 33, 33)" stroke="none" stroke-width="1px">8k</text><text x="208.828125" y="0" dx="0em" dy="0.95em" style="text-anchor: middle; visibility: inherit; font-family: Roboto, sans-serif; font-size: 12px; font-weight: 200;" fill="rgb(33, 33, 33)" stroke="none" stroke-width="1px">10k</text><text x="243.6328125" y="0" dx="0em" dy="0.95em" style="text-anchor: middle; visibility: inherit; font-family: Roboto, sans-serif; font-size: 12px; font-weight: 200;" fill="rgb(33, 33, 33)" stroke="none" stroke-width="1px">12k</text><text x="278.4375" y="0" dx="0em" dy="0.95em" style="text-anchor: middle; visibility: hidden; font-family: Roboto, sans-serif; font-size: 12px; font-weight: 200;" fill="rgb(33, 33, 33)" stroke="none" stroke-width="1px">14k</text></g><line x1="0" y1="0" x2="278.4375" y2="0" fill="rgb(0, 0, 0)" stroke="rgb(204, 204, 204)" stroke-width="1px"></line></g></g></g></g></svg>